<?xml version="1.0" encoding="UTF-8" standalone="no"?>
<!-- Created with Inkscape (http://www.inkscape.org/) -->

<svg
   xmlns:dc="http://purl.org/dc/elements/1.1/"
   xmlns:cc="http://creativecommons.org/ns#"
   xmlns:rdf="http://www.w3.org/1999/02/22-rdf-syntax-ns#"
   xmlns:svg="http://www.w3.org/2000/svg"
   xmlns="http://www.w3.org/2000/svg"
   xmlns:xlink="http://www.w3.org/1999/xlink"
   xmlns:sodipodi="http://sodipodi.sourceforge.net/DTD/sodipodi-0.dtd"
   xmlns:inkscape="http://www.inkscape.org/namespaces/inkscape"
   id="svg3135"
   version="1.1"
   inkscape:version="0.92.2 (5c3e80d, 2017-08-06)"
   width="1000"
   height="598.79999"
   xml:space="preserve"
   sodipodi:docname="Pfizer_2009.svg"><metadata
     id="metadata3141"><rdf:RDF><cc:Work
         rdf:about=""><dc:format>image/svg+xml</dc:format><dc:type
           rdf:resource="http://purl.org/dc/dcmitype/StillImage" /><dc:title></dc:title></cc:Work></rdf:RDF></metadata><defs
     id="defs3139"><linearGradient
       id="linearGradient3499"><stop
         style="stop-color:#00adec;stop-opacity:1"
         offset="0"
         id="stop3501" /><stop
         id="stop3513"
         offset="0.2"
         style="stop-color:#00abeb;stop-opacity:1" /><stop
         id="stop3511"
         offset="0.40000001"
         style="stop-color:#009fe3;stop-opacity:1" /><stop
         id="stop3509"
         offset="0.60000002"
         style="stop-color:#0095da;stop-opacity:1" /><stop
         id="stop3507"
         offset="0.80000001"
         style="stop-color:#0082ca;stop-opacity:1" /><stop
         style="stop-color:#006fb9;stop-opacity:1"
         offset="1"
         id="stop3503" /></linearGradient><clipPath
       clipPathUnits="userSpaceOnUse"
       id="clipPath3183"><path
         d="M 0,768 H 1024 V 0 H 0 Z"
         id="path3185"
         inkscape:connector-curvature="0" /></clipPath><clipPath
       clipPathUnits="userSpaceOnUse"
       id="clipPath3271"><path
         d="M 0,768 H 1024 V 0 H 0 Z"
         id="path3273"
         inkscape:connector-curvature="0" /></clipPath><clipPath
       clipPathUnits="userSpaceOnUse"
       id="clipPath3339"><path
         d="m 764.123,271.5 48,-59.834 44.667,39.667 -38.371,7.208 -0.065,37.659 z"
         id="path3341"
         inkscape:connector-curvature="0" /></clipPath><clipPath
       clipPathUnits="userSpaceOnUse"
       id="clipPath3371"><path
         d="M 0,768 H 1024 V 0 H 0 Z"
         id="path3373"
         inkscape:connector-curvature="0" /></clipPath><clipPath
       clipPathUnits="userSpaceOnUse"
       id="clipPath3395"><path
         d="m 457.769,268.5 47.999,-59.834 6.296,46.875 -0.065,37.659 z"
         id="path3397"
         inkscape:connector-curvature="0" /></clipPath><clipPath
       clipPathUnits="userSpaceOnUse"
       id="clipPath3411"><path
         d="m 159.565,268.5 47.999,-59.834 6.298,46.875 -0.066,37.659 z"
         id="path3413"
         inkscape:connector-curvature="0" /></clipPath><clipPath
       clipPathUnits="userSpaceOnUse"
       id="clipPath3423"><path
         d="M 0,768 H 1024 V 0 H 0 Z"
         id="path3425"
         inkscape:connector-curvature="0" /></clipPath><linearGradient
       inkscape:collect="always"
       xlink:href="#linearGradient3499"
       id="linearGradient3505"
       x1="-35.385696"
       y1="-4.5759025"
       x2="11.964903"
       y2="-4.5759025"
       gradientUnits="userSpaceOnUse"
       gradientTransform="matrix(16.887245,0,0,16.887245,1376.9275,299.42471)" /></defs><sodipodi:namedview
     pagecolor="#ffffff"
     bordercolor="#666666"
     borderopacity="1"
     objecttolerance="10"
     gridtolerance="10"
     guidetolerance="10"
     inkscape:pageopacity="0"
     inkscape:pageshadow="2"
     inkscape:window-width="1366"
     inkscape:window-height="705"
     id="namedview3137"
     showgrid="false"
     fit-margin-left="0.5"
     fit-margin-bottom="0.5"
     fit-margin-top="0.5"
     fit-margin-right="0.5"
     inkscape:zoom="0.40380046"
     inkscape:cx="644.46739"
     inkscape:cy="177.67573"
     inkscape:window-x="-8"
     inkscape:window-y="-8"
     inkscape:window-maximized="1"
     inkscape:current-layer="g3143"><inkscape:grid
       type="xygrid"
       id="grid3456"
       empspacing="5"
       visible="true"
       enabled="true"
       snapvisiblegridlinesonly="true"
       originx="-974.4755"
       originy="-35.067534"
       spacingx="1"
       spacingy="1" /></sodipodi:namedview><g
     id="g3143"
     inkscape:groupmode="layer"
     inkscape:label="Get_Old_Survey-Final"
     transform="matrix(1.25,0,0,-1.25,-974.4755,633.86755)"><g
       style="fill:#000080"
       id="g3231"
       transform="matrix(16.887245,0,0,16.887245,941.32284,359.83376)" /><path
       id="path3237"
       style="fill:url(#linearGradient3505);fill-opacity:1;fill-rule:evenodd;stroke:none;stroke-width:16.88724518"
       d="m 1376.9275,299.42471 c 1.3679,-0.0338 2.9553,0 4.5089,-0.33774 5.1844,-1.14834 7.5317,-4.40758 6.738,-9.6764 -0.9288,-6.01186 -3.4957,-11.26379 -7.3966,-15.87401 -5.5221,-6.4847 -12.4459,-10.84161 -20.2985,-13.86442 -7.1264,-2.73574 -14.5737,-4.13738 -22.156,-4.88042 -0.4729,-0.0338 -0.9964,-0.0338 -1.4692,-0.0507 -3.3268,-0.0338 -3.749,0.40529 -2.9215,3.52943 1.1483,4.39069 2.685,8.66316 4.7284,12.7161 3.6308,7.21085 8.4436,13.52668 14.4724,18.9306 6.7549,6.04563 15.2492,9.49063 23.7941,9.50752 m -435.60471,60.40905 c 5.9612,0.0844 11.82107,-0.54039 17.61339,-1.82382 3.78275,-0.86125 7.37973,-2.12779 10.72341,-4.15426 6.06252,-3.63076 9.16977,-9.06845 9.55818,-16.05977 0.18576,-3.46189 0,-6.90689 -0.67549,-10.31811 -1.7225,-8.40985 -3.90096,-16.70149 -7.4135,-24.58783 -4.99863,-11.16247 -12.29392,-20.14648 -23.77725,-25.21266 -5.18438,-2.27977 -10.62207,-3.61387 -16.19486,-4.55955 -6.53537,-1.11456 -13.15517,-1.11456 -19.74119,-1.5874 -0.59106,-0.0169 -1.18211,0 -1.77316,0.0844 -1.03013,0.18576 -1.55363,0.82748 -1.31721,1.90826 0.18576,0.96257 0.4053,1.92515 0.67549,2.88772 7.16019,26.56364 14.35416,53.11039 21.54813,79.65714 0.96257,3.58009 1.1821,3.71519 4.86352,3.76585 1.95892,0.0169 3.95162,0 5.91054,0 M 1486.3975,292.1192 c -0.2878,1.6043 0.2365,2.68508 0.5574,3.81652 1.7563,6.16385 3.5295,12.3108 5.2689,18.47464 0.7427,2.63442 0.4053,3.14104 -2.1278,3.14104 -12.0407,0.0513 -24.0644,0.0513 -36.105,0 -2.5668,0 -2.9553,-0.35464 -3.6983,-2.92149 -0.7775,-2.66819 -1.4358,-5.33637 -2.1616,-8.02144 -10.6726,-39.6006 -21.3792,-79.20118 -32.0857,-118.81867 -0.083,-0.38837 -0.2366,-0.75989 -0.2878,-1.14826 -0.2696,-1.60429 -0.017,-1.95893 1.5366,-2.1278 0.5062,-0.0679 0.9958,-0.0331 1.4854,-0.0331 12.0405,0 24.0813,0 36.105,0.0166 3.5632,0 3.6644,0.11736 4.6271,3.61387 3.8502,14.18529 7.65,28.37057 11.5508,42.53897 2.6007,9.50752 4.8466,19.13325 8.7813,28.21858 3.8504,8.79826 8.1735,17.32631 14.2698,24.80736 3.5801,4.40759 7.6331,8.25788 12.9525,10.53765 3.3606,1.43541 6.8057,2.04335 10.3858,1.04703 2.2796,-0.64178 3.8164,-2.06024 4.4074,-4.3569 0.3044,-1.33402 0.7262,-2.68507 0.7775,-4.05293 0.5739,-10.21679 14.9621,-17.07301 23.9292,-12.66544 3.6139,1.77316 6.6705,4.12048 9.0009,7.43038 3.5632,5.06618 4.4414,10.7234 3.6815,16.65082 -1.1149,8.78139 -5.5222,15.48564 -13.7463,18.93063 -8.2578,3.46189 -16.8534,3.91784 -25.3815,0.62491 -3.5125,-1.33418 -6.8393,-3.0566 -9.9971,-5.09995 -7.8526,-5.08306 -14.6751,-11.29756 -20.9065,-18.22134 -0.7592,-0.8444 -1.401,-1.90826 -2.8202,-2.3811 M 1216.9101,184.44673 v 0.0165 c 17.3601,0 34.737,-0.0165 52.0971,0 3.462,0.0165 3.6309,0.15215 4.5259,3.37745 1.7056,6.28206 3.4112,12.56411 5.083,18.86305 1.1149,4.15427 1.1149,4.17115 -3.0903,4.17115 h -58.6326 c -0.9792,0 -1.9589,-0.0165 -2.9383,0.0165 -2.4824,0.15216 -2.8539,0.72616 -1.621,2.9046 1.8238,3.1748 3.9685,6.14696 6.2314,9.00091 7.5823,9.5244 16.4143,17.84981 25.2296,26.209 11.0273,10.4532 22.2742,20.66999 32.4066,32.0351 6.6198,7.48105 12.6992,15.3674 17.4782,24.16565 1.7394,3.22546 3.2762,6.51847 4.4245,10.01414 0.5409,1.70561 0.1687,2.16156 -1.5532,2.33044 -1.0983,0.10082 -2.1784,0.0513 -3.2761,0.0513 h -97.1015 c -0.9793,0 -1.959,0.0165 -2.9385,0 -2.7863,-0.10082 -3.158,-0.32089 -3.9179,-3.03971 -1.2836,-4.47512 -2.4316,-8.96713 -3.6476,-13.44225 -1.267,-4.72842 -1.2157,-4.79597 3.6982,-4.79597 17.0731,0 34.163,0.0165 51.2192,-0.0331 1.3001,0 3.1241,0.70928 3.7319,-0.86128 0.4731,-1.21591 -0.9792,-2.22912 -1.7561,-3.19168 -4.948,-6.06253 -10.6559,-11.38201 -16.2793,-16.76904 -12.5304,-12.0575 -25.2465,-23.87856 -36.8312,-36.84797 -6.8393,-7.6668 -13.2564,-15.67137 -18.5083,-24.53717 -4.5934,-7.76813 -8.3592,-15.8909 -9.44,-25.02689 -0.5409,-4.52579 -0.5409,-4.61023 4.2048,-4.61023 h 51.2021 z m 127.3637,-4.20493 c 7.5148,-0.18576 14.7425,0.70926 21.8858,2.43176 16.3807,3.96851 30.2957,12.1757 41.8972,24.31764 2.111,2.22911 2.111,2.46555 0.3375,5.0324 -2.854,4.03604 -5.6742,8.0721 -8.5619,12.09128 -1.7224,2.41486 -2.1447,2.46552 -4.4075,0.57413 -3.1579,-2.65131 -6.2651,-5.42081 -9.4906,-8.00457 -4.7285,-3.74896 -9.8452,-6.95753 -15.4519,-9.25421 -8.3422,-3.4281 -16.8027,-4.23868 -25.3477,-0.70926 -8.8321,3.63076 -15.2662,12.3108 -15.0634,21.80143 0.05,2.17844 -0.017,4.3569 0.05,6.53536 0.099,3.36057 0.4565,3.74896 3.7996,3.81651 4.7285,0.11737 9.4569,0.2195 14.2021,0.5404 12.6823,0.86128 25.01,3.34367 36.9662,7.58237 9.1867,3.27613 17.1744,8.46052 23.6928,15.70513 5.8936,6.50161 10.0987,13.93199 11.6184,22.62892 1.2836,7.36284 0.8271,14.5568 -3.8164,20.94019 -4.6609,6.4678 -11.1456,10.19989 -18.6098,12.37833 -9.4738,2.76951 -19.1164,2.80329 -28.7422,1.26653 -33.3185,-5.40392 -57.8725,-23.0342 -72.8853,-53.34681 -6.6704,-13.50979 -9.5244,-28.04971 -7.3628,-43.1469 2.7525,-19.28525 13.476,-32.42352 31.6467,-39.39794 7.6669,-2.9384 15.6375,-4.08673 23.6421,-3.78276 m -481.74247,4.20493 c 5.91053,0 11.83809,-0.0165 17.73159,0 3.78289,0.0165 3.86724,0.10082 4.86366,3.73209 3.46183,12.8343 6.94054,25.70238 10.41939,38.57047 1.68873,6.28205 3.37749,12.56411 5.13378,18.84616 0.72615,2.63441 1.03046,2.7695 3.68133,2.92149 2.26294,0.11737 4.52573,0.33776 6.78869,0.3715 10.87542,0.0679 21.66632,1.01329 32.42348,2.54997 12.15883,1.70561 24.03051,4.52579 35.34509,9.4062 14.80999,6.41715 26.42846,16.36374 33.87576,30.85299 4.7623,9.25421 8.0215,19.11636 9.9128,29.35003 2.2629,12.12505 -0.354,23.33818 -7.6161,33.35232 -5.0493,6.97442 -11.8548,11.80418 -19.52164,15.45183 -12.98636,6.18072 -26.85072,8.68004 -41.01908,9.16976 -19.25155,0.6924 -38.48604,0.20263 -57.72069,0.23638 -3.14094,0 -3.47871,-0.33777 -4.32312,-3.29302 -0.13172,-0.38837 -0.22004,-0.75989 -0.32086,-1.14826 -8.81509,-32.55861 -17.61333,-65.13411 -26.42859,-97.69271 -7.90321,-29.13049 -15.78954,-58.27788 -23.64212,-87.42526 -0.32086,-1.1314 -0.60879,-2.27979 -0.82697,-3.44501 -0.23659,-1.08078 0.26969,-1.68872 1.40096,-1.73938 0.79387,-0.0513 1.58791,-0.0679 2.36419,-0.0679 h 17.47818 z m 367.66927,322.64771 h 47.3854 c 1.2158,-0.43907 2.5162,-0.40529 3.7828,-0.43907 2.5838,-0.0675 5.1337,-0.0507 7.6837,-0.23642 15.3674,-1.04701 30.6842,-2.33042 45.9333,-4.42444 32.3392,-4.44134 64.0534,-11.51712 94.8388,-22.44315 27.6612,-9.82837 53.921,-22.40938 77.8671,-39.53305 19.8594,-14.18528 37.135,-30.86989 50.3746,-51.53986 10.0649,-15.72204 16.8705,-32.7106 20.0959,-51.13458 0.6252,-3.61387 0.7262,-7.26152 1.4192,-10.84162 v -23.08487 c -0.693,-2.2121 -0.3887,-4.52566 -0.693,-6.73788 -2.2461,-16.58328 -7.194,-32.33908 -14.2529,-47.45316 -10.5714,-22.6458 -25.0776,-42.62341 -41.9479,-60.94608 -14.388,-15.65446 -30.245,-29.72154 -47.1661,-42.58962 -30.1437,-22.8991 -62.7192,-41.69462 -97.1354,-57.382851 -48.8718,-22.341825 -99.905,-37.94564 -152.6269,-47.993567 -17.8499,-3.377432 -35.7841,-6.113166 -53.8366,-8.055216 -9.3217,-0.97946 -18.6603,-1.790048 -27.9821,-2.465521 -9.0348,-0.641715 -18.1201,-1.148333 -27.1716,-1.317205 -0.8783,-0.03377 -1.7563,-0.270196 -2.6176,-0.422181 h -27.8301 c -1.047,0.405294 -2.1278,0.422181 -3.2254,0.455955 -10.2337,0.303971 -20.4844,0.895024 -30.718,1.688725 -13.9658,1.097671 -27.864,2.786395 -41.7115,4.880414 -0.5905,0.08444 -1.1645,0.236421 -1.7563,0.371519 -1.1992,0.219534 -1.621,0.97946 -1.3679,2.161584 0.2035,0.945686 0.4565,1.908242 0.7096,2.870815 2.2291,8.376074 4.492,16.785922 6.7379,25.161995 19.3359,71.737024 38.6718,143.474044 58.0077,215.227944 1.0984,4.08671 2.1955,8.19031 3.3437,12.2939 0.8106,2.82018 1.148,3.0566 4.1374,3.14104 0.4053,0.0165 0.7939,0.0165 1.1826,0.0165 h 34.6357 c 0.794,0 1.5879,-0.0165 2.3812,-0.0843 1.1991,-0.1009 1.79,-0.75989 1.5366,-1.9758 -0.1853,-1.08078 -0.4731,-2.11091 -0.7593,-3.17482 -9.1023,-33.92646 -18.2045,-67.85295 -27.2899,-101.7963 -0.22,-0.84441 -0.4384,-1.70561 -0.6417,-2.56686 -0.3043,-1.33417 0.2018,-2.1109 1.6045,-2.21223 0.5905,-0.0331 1.1826,-0.0679 1.7563,-0.0679 h 35.5475 c 3.3775,0.0165 3.5464,0.13561 4.4583,3.4619 1.9589,7.2615 3.8672,14.50613 5.7922,21.75077 9.2206,34.39932 18.4409,68.81552 27.6614,103.21484 1.2671,4.72843 1.3167,4.72843 -3.597,4.72843 h -75.5028 c -0.9793,0 -1.9758,-0.0165 -2.9552,0.0331 -2.5839,0.1356 -2.9216,0.55726 -2.3305,3.10724 0.9297,3.85029 1.9082,7.66682 2.8709,11.50022 3.867,15.82335 7.6498,31.66358 12.9862,47.06474 2.2798,6.53537 4.7454,13.00319 8.1566,19.03194 4.1373,7.32906 9.3723,13.67867 16.904,17.81604 5.1169,2.7864 10.6222,4.3569 16.482,3.66453 5.6404,-0.67552 8.5112,-4.22181 8.4943,-9.86215 -0.016,-2.58376 -0.9296,-4.84664 -1.9926,-7.07576 -1.1646,-2.49931 -2.3981,-4.94796 -3.4283,-7.54859 -3.6138,-9.1529 2.1955,-22.17296 12.294,-25.55041 15.8572,-5.31948 32.4572,3.3099 36.7128,19.50477 0.8106,3.0566 1.3002,6.16384 0.8949,9.37243 -0.8452,6.80556 -3.7321,12.66542 -8.545,17.49518 -6.0118,6.01186 -13.0707,10.4532 -21.3454,12.76675 -11.7366,3.25924 -23.6591,4.05295 -35.7841,3.00593 -19.5048,-1.68872 -35.6321,-10.13235 -49.1081,-24.06432 -10.0141,-10.36878 -17.09,-22.62892 -22.8822,-35.69964 -5.7417,-13.03695 -9.7947,-26.66496 -13.5436,-40.3774 -8.241,-30.27882 -16.3975,-60.57455 -24.5541,-90.88716 -13.4928,-50.02001 -26.96879,-100.04003 -40.44493,-150.060068 -3.86708,-14.387916 -7.73433,-28.775848 -11.63532,-43.163781 -0.82696,-3.073479 -1.13144,-3.174819 -4.12047,-2.465538 -0.48956,0.101324 -0.96274,0.253309 -1.4192,0.37152 -7.63293,2.043356 -15.21541,4.272473 -22.69649,6.754898 -30.81919,10.166121 -60.03409,23.675917 -86.42879,42.758504 -20.02829,14.472365 -37.33775,31.596015 -50.44221,52.671315 -11.3652,18.20445 -18.49166,37.89498 -20.77132,59.27424 -0.1486,1.40167 -0.43839,2.71885 -1.03045,3.98538 v 22.5107 c 0.69305,1.33418 0.9114,2.7864 1.0801,4.25559 0.26952,2.46554 0.55745,4.91418 0.96275,7.34595 4.17126,25.1451 14.05027,48.01044 27.76276,69.30525 16.44804,25.55041 37.10124,47.30117 60.28733,66.73839 24.68917,20.70377 51.57363,38.09764 80.02864,53.14416 37.38837,19.75808 76.5668,35.07481 117.2313,46.60878 52.4517,14.86079 105.8662,23.69282 160.3612,25.71929 0.9793,0.0507 1.959,0.0844 2.9048,0.4389"
       inkscape:connector-curvature="0" /></g></svg>