<svg id="rgb" xmlns="http://www.w3.org/2000/svg" viewBox="0 0 216 29.42"><defs><style>.cls-1{fill:#005a8c;}.cls-2{fill:#ef8200;}</style></defs><title>pw-test-mck_logo-RGB</title><path class="cls-1" d="M209.6.85V19.11L199.14.85h-8.3V29.14h6.41V10.4C198.33,12.28,208,29.14,208,29.14h8V.85Z" transform="translate(0 -0.29)"/><path class="cls-1" d="M20.25.85s-5.1,15.66-5.63,17.3C14.08,16.5,9,.85,9,.85H0v28.3H6.26V9.82c1,3.34,5.86,19.32,5.86,19.32h4.75S22,13,23,9.75V29.14h6.29V.85h-9" transform="translate(0 -0.29)"/><polygon class="cls-1" points="103.47 28.85 82.56 28.85 82.56 0.56 103.47 0.56 103.47 6.05 89.37 6.05 89.37 11.32 102.29 11.32 102.29 16.8 89.37 16.8 89.37 23.37 103.47 23.37 103.47 28.85"/><rect class="cls-2" x="35.03" y="23.74" width="15.33" height="5.11"/><path class="cls-1" d="M70.78.85s-7.56,9.47-8.66,10.72V.85H55.69v28.3h6.43V16.65C63.25,18,71,29.14,71,29.14h9S68.07,14.47,67.64,14L79.28.85Z" transform="translate(0 -0.29)"/><path class="cls-1" d="M159.66,14.92c0,8.73,4.62,14.79,13.38,14.79s13.37-6.19,13.37-14.79S181.61.29,173,.29s-13.38,5.92-13.38,14.63m6.83,0c0-4.29,1.91-8.68,6.55-8.68s6.56,4.4,6.56,8.68-1.76,8.83-6.56,8.83-6.55-4.43-6.55-8.83" transform="translate(0 -0.29)"/><path class="cls-1" d="M121.43,11.94c-3.09-.82-6-1.32-6.06-3.31A1.83,1.83,0,0,1,116,7.18c1.09-1,3.57-1.33,5.53-1.18a15.37,15.37,0,0,1,7.08,2.07L130,2.31a28,28,0,0,0-10.29-2c-7.1.07-11.48,3.56-11.48,9.11s5.39,7.11,9.91,8.41c2.94.82,5.88,1.26,5.88,3.45s-3.55,3-5.94,3a15.84,15.84,0,0,1-8.32-2.51l-1.83,5.7c4.08,1.6,6.55,2.29,10.49,2.29,4.31,0,7.86-1.19,10-3.35a8.14,8.14,0,0,0,2.38-5.93c0-5.76-5.06-7.36-9.36-8.47" transform="translate(0 -0.29)"/><path class="cls-1" d="M147.1,11.94c-3.09-.82-6-1.32-6.08-3.31a1.91,1.91,0,0,1,.61-1.45c1.11-1,3.58-1.33,5.53-1.18a15.49,15.49,0,0,1,7.09,2.07l1.38-5.75a27.94,27.94,0,0,0-10.29-2c-7.09.07-11.48,3.56-11.48,9.11s5.39,7.11,9.91,8.41c2.94.82,5.88,1.26,5.88,3.45s-3.55,3-5.94,3a15.82,15.82,0,0,1-8.32-2.51l-1.84,5.7c4.07,1.6,6.55,2.29,10.5,2.29,4.29,0,7.86-1.19,10-3.35a8.21,8.21,0,0,0,2.37-5.93c0-5.76-5.08-7.36-9.36-8.47" transform="translate(0 -0.29)"/><path class="cls-1" d="M44.57,21.07a15.41,15.41,0,0,0,6.55-1.3l-1.95-4.57a6.45,6.45,0,0,1-3.37.94c-3.32,0-6.06-1.65-6.06-5.43s2.74-5.43,6.06-5.43a6.57,6.57,0,0,1,3.37.92l1.95-4.56A15.63,15.63,0,0,0,44.57.32C37.8.32,33.5,4.21,33.5,10.7s4.3,10.36,11.07,10.36" transform="translate(0 -0.29)"/></svg>