<?xml version="1.0" encoding="UTF-8"?> <svg xmlns="http://www.w3.org/2000/svg" width="911" height="175" viewBox="0 0 911 175" fill="none"><path d="M24.2743 174.136C14.5298 174.115 5.50322 167.811 1.83641 158.86C-1.89058 149.762 0.304377 138.995 7.23325 131.999C12.7127 126.52 21.5894 122.027 21.5894 114.465C21.5894 96.8213 7.78112 99.1229 7.83591 83.1777C7.83586 74.066 15.4365 66.4404 24.5482 66.4106C33.5436 66.6157 40.9595 74.18 40.9865 83.1777C40.9865 99.1229 27.1785 96.8213 27.1785 114.465C27.1785 122.027 36.2196 126.684 41.5346 131.999C48.5208 138.95 50.6964 149.706 46.9609 158.826C43.2252 167.946 34.1294 174.084 24.2743 174.136Z" fill="#1A3BDD"></path><path d="M147.013 80.9549C150.276 86.6184 151.163 93.3443 149.478 99.66C146.029 112.594 132.353 120.605 119.396 117.065C112.109 115.092 103.616 109.612 97.0404 113.393C81.8623 122.16 90.7389 133.064 77.0403 140.79C69.2378 144.187 59.8524 141.043 55.6723 133.63C51.4923 126.217 53.6577 116.559 60.6019 111.64C74.3005 103.695 79.2319 117.119 94.41 108.023C100.931 104.243 100.437 94.0507 102.355 86.7631C104.869 77.2379 113.079 69.9474 122.823 68.6535C132.737 67.3371 142.054 72.3201 147.013 80.9549Z" fill="#1A3BDD"></path><path d="M4.28938 20.7433C9.18528 12.2149 19.0102 7.36222 28.7583 8.658C38.5067 9.95382 46.7225 17.2045 49.2206 26.716C51.1384 34.0585 50.6453 44.1952 57.1658 48.0308C72.3439 56.8527 77.2753 43.6474 90.9739 51.6474C98.9091 56.1708 101.629 66.7286 97.1112 74.6063C92.5463 82.483 82.1587 85.2728 74.2617 80.7433C60.563 72.7981 69.44 61.894 54.2619 53.346C47.6866 49.5652 39.1933 55.0994 31.9057 57.072C18.9643 60.5572 5.27798 52.5585 1.82791 39.6417C0.143361 33.335 1.02869 26.3985 4.28938 20.7433Z" fill="#1A3BDD"></path><path d="M427.725 88.8132C427.772 75.9005 432.034 63.3563 439.863 53.0871C447.691 42.818 458.658 35.3855 471.097 31.9192C483.536 28.4529 496.767 29.1425 508.778 33.883C520.789 38.6235 530.924 47.156 537.643 58.1833C537.722 58.3127 537.776 58.4563 537.8 58.6064C537.824 58.7565 537.818 58.9098 537.782 59.0576C537.746 59.2053 537.682 59.3446 537.592 59.4672C537.502 59.5899 537.389 59.6936 537.259 59.7722L520.108 70.1833C519.981 70.2711 519.837 70.331 519.686 70.3592C519.534 70.3875 519.378 70.3834 519.228 70.3472C519.078 70.311 518.937 70.2432 518.815 70.1489C518.693 70.0545 518.592 69.9357 518.519 69.7997C515.5 63.9174 510.864 59.019 505.157 55.6801C499.449 52.3411 492.908 50.7003 486.3 50.9504C476.509 51.409 467.278 55.6466 460.547 62.7718C453.817 69.8971 450.111 79.3547 450.211 89.1557C450.31 98.9568 454.206 108.337 461.08 115.325C467.954 122.312 477.269 126.362 487.067 126.622C494.156 126.972 501.158 124.94 506.957 120.848C512.757 116.757 517.02 110.842 519.067 104.046C519.129 103.872 519.148 103.685 519.122 103.502C519.096 103.319 519.026 103.144 518.919 102.994C518.811 102.843 518.669 102.721 518.504 102.637C518.339 102.553 518.156 102.51 517.971 102.512H485.095C484.943 102.512 484.794 102.482 484.654 102.424C484.515 102.366 484.388 102.282 484.281 102.175C484.174 102.068 484.09 101.941 484.032 101.802C483.974 101.662 483.944 101.512 483.944 101.361V82.7311C483.937 82.5755 483.961 82.42 484.015 82.274C484.07 82.128 484.154 81.9944 484.261 81.8817C484.369 81.7689 484.498 81.6793 484.641 81.6181C484.785 81.5569 484.939 81.5253 485.095 81.5255H542.191C542.346 81.5253 542.5 81.5569 542.644 81.6181C542.787 81.6793 542.916 81.7689 543.024 81.8817C543.132 81.9944 543.215 82.128 543.27 82.274C543.324 82.42 543.348 82.5755 543.341 82.7311V90.5667C543.341 121.416 521.423 148.101 487.341 148.101C479.511 148.295 471.723 146.9 464.447 144.001C457.171 141.102 450.558 136.759 445.007 131.233C439.456 125.708 435.082 119.115 432.15 111.852C429.217 104.59 427.786 96.8085 427.944 88.9778" fill="#1A3BDD"></path><path d="M552.749 33.1287H571.928C572.233 33.1287 572.525 33.2497 572.741 33.4655C572.957 33.6813 573.078 33.974 573.078 34.2792V145.348C573.078 145.653 572.957 145.946 572.741 146.161C572.525 146.377 572.233 146.498 571.928 146.498H552.749C552.449 146.485 552.163 146.359 551.95 146.146C551.738 145.933 551.612 145.649 551.599 145.348V34.2792C551.599 34.1281 551.628 33.9787 551.686 33.8391C551.744 33.6995 551.829 33.5724 551.936 33.4655C552.043 33.3587 552.169 33.2742 552.309 33.2163C552.449 33.1585 552.598 33.1287 552.749 33.1287Z" fill="#1A3BDD"></path><path d="M580.379 107.002C580.444 98.9754 582.884 91.1473 587.39 84.5046C591.897 77.8619 598.27 72.7019 605.704 69.675C613.139 66.648 621.303 65.8897 629.168 67.4954C637.033 69.1011 644.247 72.9989 649.9 78.6978C655.553 84.3967 659.393 91.6416 660.936 99.5193C662.478 107.397 661.654 115.555 658.567 122.965C655.48 130.375 650.269 136.705 643.59 141.159C636.911 145.612 629.064 147.988 621.037 147.988C615.67 147.989 610.356 146.926 605.402 144.862C600.447 142.799 595.951 139.775 592.171 135.964C588.391 132.154 585.403 127.633 583.379 122.662C581.355 117.691 580.336 112.369 580.379 107.002ZM640.653 107.002C640.704 104.361 640.234 101.736 639.27 99.2771C638.306 96.8178 636.867 94.5724 635.036 92.6693C633.204 90.7662 631.015 89.2428 628.594 88.1858C626.174 87.1288 623.568 86.5592 620.927 86.5093C615.492 86.5093 610.28 88.6682 606.436 92.5114C602.593 96.3546 600.434 101.567 600.434 107.002C600.434 112.437 602.593 117.65 606.436 121.493C610.28 125.336 615.492 127.495 620.927 127.495C626.256 127.38 631.323 125.16 635.019 121.32C638.716 117.479 640.741 112.332 640.653 107.002Z" fill="#1A3BDD"></path><path d="M853.395 33.1287H872.573C872.724 33.1287 872.874 33.1585 873.013 33.2163C873.153 33.2742 873.28 33.3587 873.387 33.4655C873.493 33.5724 873.578 33.6995 873.636 33.8391C873.694 33.9787 873.724 34.1281 873.724 34.2792V145.348C873.724 145.499 873.694 145.649 873.636 145.788C873.578 145.928 873.493 146.055 873.387 146.161C873.28 146.268 873.153 146.353 873.013 146.411C872.874 146.469 872.724 146.498 872.573 146.498H853.395C853.09 146.498 852.797 146.377 852.581 146.161C852.365 145.946 852.244 145.653 852.244 145.348V34.2792C852.244 33.974 852.365 33.6813 852.581 33.4655C852.797 33.2497 853.09 33.1287 853.395 33.1287Z" fill="#1A3BDD"></path><path d="M313.648 67.1639V87.3831C313.649 87.5439 313.616 87.703 313.551 87.8503C313.487 87.9975 313.392 88.1298 313.273 88.2382C313.154 88.3466 313.014 88.4288 312.862 88.4797C312.709 88.5306 312.548 88.5492 312.388 88.5339C302.086 87.8215 289.812 92.8078 289.812 108.698V145.356C289.812 145.507 289.783 145.657 289.725 145.796C289.667 145.936 289.582 146.063 289.475 146.169C289.368 146.276 289.242 146.361 289.102 146.419C288.963 146.477 288.813 146.507 288.662 146.507H270.744C270.439 146.507 270.146 146.385 269.93 146.169C269.714 145.954 269.593 145.661 269.593 145.356V68.6434C269.586 68.4878 269.61 68.3323 269.665 68.1863C269.719 68.0403 269.803 67.9067 269.91 67.794C270.018 67.6813 270.147 67.5917 270.291 67.5304C270.434 67.4692 270.588 67.438 270.744 67.4381H288.662C288.972 67.4522 289.265 67.5851 289.479 67.8097C289.693 68.0343 289.813 68.333 289.812 68.6434V81.0271C291.583 76.4933 294.703 72.6121 298.75 69.9076C302.797 67.2032 307.576 65.8056 312.443 65.9037C312.598 65.8963 312.754 65.9205 312.9 65.975C313.046 66.0295 313.179 66.1132 313.292 66.2208C313.404 66.3284 313.494 66.4577 313.555 66.601C313.616 66.7443 313.648 66.8987 313.648 67.0545" fill="#1A3BDD"></path><path d="M325.542 67.5578H343.46C343.77 67.5719 344.063 67.7051 344.277 67.9297C344.492 68.1542 344.611 68.453 344.611 68.7634V145.476C344.611 145.781 344.49 146.074 344.274 146.289C344.058 146.505 343.765 146.626 343.46 146.626H325.542C325.391 146.626 325.242 146.596 325.102 146.539C324.963 146.481 324.835 146.396 324.729 146.289C324.622 146.182 324.537 146.055 324.479 145.916C324.421 145.776 324.392 145.627 324.392 145.476V68.6537C324.384 68.4981 324.408 68.3426 324.463 68.1966C324.517 68.0506 324.601 67.917 324.708 67.8043C324.816 67.6916 324.946 67.602 325.089 67.5407C325.232 67.4795 325.386 67.4483 325.542 67.4484" fill="#1A3BDD"></path><path d="M354.238 126.262L372.594 119.084C372.871 118.974 373.179 118.974 373.455 119.087C373.731 119.199 373.953 119.414 374.074 119.687C375.441 122.748 377.712 125.317 380.582 127.051C383.451 128.784 386.783 129.599 390.128 129.386C397.197 129.386 401.087 126.043 401.087 122.262C401.087 118.482 393.416 116.783 384.32 115.029C370.238 112.509 356.101 107.632 356.101 90.7555C356.101 77.4953 368.813 65.7144 388.265 65.9883C405.197 65.9883 415.115 72.7829 420.868 83.139C420.943 83.2824 420.988 83.4394 421 83.6005C421.013 83.7617 420.994 83.9238 420.943 84.0771C420.892 84.2305 420.81 84.3719 420.703 84.4932C420.596 84.6144 420.466 84.7129 420.32 84.7828L403.553 91.906C403.283 92.0203 402.98 92.0272 402.705 91.9254C402.43 91.8236 402.204 91.6208 402.074 91.3582C400.71 88.888 398.672 86.8555 396.199 85.4975C393.725 84.1395 390.917 83.5116 388.101 83.6868C381.033 83.6868 377.909 86.6457 377.909 90.1525C377.909 93.6594 382.457 94.8651 394.347 97.2212C407.553 99.9062 422.731 104.618 422.731 121.659C422.731 133.166 412.101 148.289 389.525 147.961C371.06 147.961 359.717 140.947 353.909 127.796C353.847 127.653 353.816 127.499 353.815 127.342C353.815 127.186 353.847 127.031 353.908 126.888C353.97 126.744 354.06 126.615 354.173 126.507C354.286 126.4 354.42 126.316 354.567 126.262" fill="#1A3BDD"></path><path d="M321.44 44.5375C321.654 41.2462 323.113 38.1598 325.519 35.9046C327.926 33.6494 331.101 32.3943 334.399 32.3943C337.697 32.3943 340.872 33.6494 343.278 35.9046C345.685 38.1598 347.144 41.2462 347.358 44.5375C347.473 46.3101 347.223 48.0877 346.624 49.76C346.025 51.4324 345.09 52.964 343.875 54.2603C342.66 55.5565 341.193 56.5899 339.563 57.2963C337.933 58.0027 336.175 58.3668 334.399 58.3668C332.623 58.3668 330.865 58.0027 329.235 57.2963C327.605 56.5899 326.137 55.5565 324.923 54.2603C323.708 52.964 322.772 51.4324 322.173 49.76C321.574 48.0877 321.325 46.3101 321.44 44.5375Z" fill="#1A3BDD"></path><path d="M190.756 126.445C190.518 126.451 190.287 126.526 190.092 126.663C189.897 126.799 189.747 126.991 189.66 127.212L183.578 145.349C183.492 145.571 183.342 145.762 183.147 145.899C182.951 146.035 182.72 146.111 182.482 146.117H161.496C161.315 146.107 161.139 146.057 160.98 145.97C160.821 145.883 160.684 145.761 160.579 145.613C160.473 145.466 160.402 145.297 160.372 145.118C160.341 144.94 160.351 144.756 160.4 144.582L197.934 36.4728C198.005 36.2364 198.149 36.0288 198.347 35.8808C198.544 35.7329 198.784 35.6522 199.03 35.6508H224.291C224.537 35.6522 224.777 35.7329 224.974 35.8808C225.171 36.0288 225.316 36.2364 225.386 36.4728L263.688 144.802C263.749 144.976 263.768 145.162 263.742 145.346C263.716 145.529 263.647 145.703 263.539 145.854C263.432 146.004 263.289 146.127 263.125 146.211C262.96 146.294 262.777 146.337 262.592 146.336H241.496C241.256 146.338 241.022 146.265 240.825 146.128C240.629 145.99 240.48 145.795 240.4 145.568L234.318 127.212C234.232 126.991 234.081 126.799 233.886 126.663C233.691 126.526 233.46 126.451 233.222 126.445H190.756ZM226.756 104.527L213.277 64.1439C213.202 63.9117 213.056 63.7091 212.859 63.5654C212.662 63.4216 212.425 63.3443 212.181 63.3443C211.937 63.3443 211.7 63.4216 211.503 63.5654C211.306 63.7091 211.16 63.9117 211.085 64.1439L197.606 104.527C197.544 104.702 197.525 104.889 197.551 105.072C197.577 105.255 197.647 105.429 197.754 105.58C197.862 105.73 198.004 105.853 198.169 105.937C198.334 106.021 198.517 106.064 198.702 106.062H225.332C225.517 106.064 225.699 106.021 225.864 105.937C226.029 105.853 226.172 105.73 226.279 105.58C226.387 105.429 226.456 105.255 226.482 105.072C226.508 104.889 226.489 104.702 226.428 104.527" fill="#1A3BDD"></path><path d="M840.066 67.5821H820.888C820.737 67.5821 820.587 67.6119 820.448 67.6697C820.308 67.7275 820.181 67.8123 820.074 67.9192C819.968 68.026 819.883 68.1528 819.825 68.2924C819.767 68.432 819.737 68.5818 819.737 68.7329V74.5411C819.737 74.5411 819.409 74.9246 819.19 74.5411C816.154 71.6394 812.569 69.3739 808.645 67.8777C804.721 66.3815 800.537 65.6848 796.34 65.8286C778.641 65.8286 757.984 78.9247 757.984 106.815C757.696 112.007 758.454 117.204 760.212 122.098C761.97 126.992 764.693 131.483 768.218 135.306C771.744 139.128 776.002 142.203 780.738 144.35C785.475 146.496 790.594 147.67 795.792 147.801C800.12 147.89 804.418 147.062 808.404 145.372C812.389 143.681 815.971 141.167 818.916 137.993H819.463V145.39C819.456 145.546 819.48 145.701 819.535 145.847C819.589 145.993 819.673 146.127 819.781 146.24C819.888 146.352 820.018 146.442 820.161 146.503C820.304 146.564 820.458 146.596 820.614 146.596H839.792C840.102 146.581 840.395 146.449 840.609 146.224C840.824 145.999 840.943 145.701 840.943 145.39V68.678C840.943 68.3728 840.821 68.0801 840.606 67.8643C840.39 67.6485 840.098 67.5272 839.792 67.5272L840.066 67.5821ZM819.847 109.884C819.361 114.821 817.066 119.404 813.404 122.752C809.743 126.1 804.973 127.977 800.012 128.021C795.024 127.975 790.212 126.177 786.416 122.942C782.62 119.707 780.083 115.241 779.247 110.324C778.411 105.407 779.33 100.353 781.844 96.0455C784.358 91.738 788.306 88.4512 792.998 86.7601C796.381 85.72 799.973 85.555 803.438 86.2802C806.902 87.0055 810.126 88.5973 812.808 90.9072C815.49 93.217 817.543 96.1692 818.774 99.4879C820.005 102.807 820.374 106.383 819.847 109.884Z" fill="#1A3BDD"></path><path d="M669.107 34.3434V145.357C669.099 145.513 669.124 145.668 669.178 145.814C669.233 145.96 669.316 146.094 669.424 146.206C669.531 146.319 669.661 146.409 669.804 146.47C669.947 146.531 670.102 146.562 670.258 146.562H689.381C689.539 146.562 689.696 146.531 689.842 146.471C689.988 146.41 690.121 146.321 690.233 146.209C690.345 146.098 690.434 145.964 690.495 145.818C690.555 145.672 690.586 145.515 690.586 145.357V138.563C690.616 138.517 690.657 138.48 690.705 138.455C690.753 138.429 690.806 138.415 690.86 138.415C690.914 138.415 690.968 138.429 691.016 138.455C691.063 138.48 691.104 138.517 691.134 138.563C694.072 141.744 697.653 144.265 701.64 145.956C705.627 147.647 709.928 148.47 714.257 148.371C719.471 148.213 724.6 147.006 729.338 144.823C734.076 142.64 738.325 139.525 741.833 135.665C745.341 131.804 748.036 127.276 749.756 122.351C751.477 117.427 752.187 112.206 751.846 107.001C751.846 79.1105 731.463 66.0147 713.49 66.0147C705.153 65.8247 697.078 68.9362 691.025 74.672H690.531V34.5079C690.531 34.1882 690.405 33.8815 690.178 33.6554C689.952 33.4293 689.646 33.3022 689.326 33.3022H670.148C669.992 33.3021 669.838 33.3337 669.694 33.3949C669.551 33.4561 669.422 33.5457 669.314 33.6584C669.207 33.7711 669.123 33.9047 669.069 34.0507C669.014 34.1967 668.99 34.3522 668.997 34.5079L669.107 34.3434ZM716.942 86.9462C721.122 88.325 724.745 91.0161 727.273 94.6196C729.8 98.2231 731.097 102.546 730.97 106.946C731.044 109.74 730.552 112.519 729.524 115.118C728.496 117.717 726.952 120.08 724.986 122.066C723.02 124.053 720.673 125.621 718.085 126.676C715.498 127.731 712.723 128.252 709.929 128.206C704.971 128.151 700.208 126.27 696.549 122.924C692.889 119.579 690.591 115.002 690.093 110.069C689.582 106.572 689.961 103.003 691.197 99.6917C692.433 96.3807 694.485 93.4357 697.163 91.1294C699.841 88.8231 703.058 87.2304 706.516 86.4991C709.974 85.7678 713.56 85.9216 716.942 86.9462Z" fill="#1A3BDD"></path><path d="M910.484 13.7493C910.484 21.3485 905.253 26.5247 897.984 26.5247C890.605 26.5247 885.484 21.4035 885.484 13.7493C885.484 6.15022 890.715 0.918945 897.984 0.918945C905.363 0.918945 910.484 6.09515 910.484 13.7493ZM908.722 13.7493C908.722 6.48062 903.931 2.40573 897.984 2.40573C892.037 2.40573 887.301 6.48062 887.301 13.7493C887.301 20.963 892.037 25.0379 897.984 25.0379C903.986 25.0379 908.722 20.963 908.722 13.7493ZM904.096 20.0269L901.673 20.5775L897.433 14.5203H896.057V20.3573H893.634V6.20529H897.929C900.902 6.20529 902.885 7.69207 902.885 10.3352C902.885 12.3727 901.783 13.6943 900.021 14.2449L904.096 20.0269ZM900.407 10.5004C900.407 9.12379 899.526 8.40793 897.929 8.40793H896.057V12.593H897.819C899.416 12.593 900.407 11.9322 900.407 10.5004Z" fill="#1A3BDD"></path></svg> 