<svg height="88" viewBox="0 0 379.9914 88.000001" width="379.99139" xmlns="http://www.w3.org/2000/svg">
  <g fill="#f89921" transform="scale(2.7018729)">
    <g transform="translate(9.64 -43.66)">
      <path d="m104.68 47.86h-5.28l-9 17.87-8.89-17.87h-5.19c5.6 11.2 14.17 28.37 14.17 28.37z"/>
      <path d="m63.75 52.09a9.35 9.35 0 0 1 9.07 7.09h-18.14a9.36 9.36 0 0 1 9.07-7.09m0 18.67a9.36 9.36 0 0 1 -9.07-7.08h22.91v-2.25a13.81 13.81 0 1 0 -1.59 6.45h-5.49a9.34 9.34 0 0 1 -6.76 2.88"/>
      <path d="m117.16 70.87a9.34 9.34 0 1 1 9.34-9.5v.31a9.36 9.36 0 0 1 -9.34 9.19m13.84-9.34v-13.6h-4.5v3.41a13.84 13.84 0 1 0 0 20.37v3.44h4.5z"/>
      <path d="m33 52.09a9.37 9.37 0 0 1 9.07 7.09h-18.07a9.35 9.35 0 0 1 9-7.09m0 18.67a9.36 9.36 0 0 1 -9-7.08h22.88v-2.25a13.84 13.84 0 1 0 -1.6 6.45h-5.48a9.36 9.36 0 0 1 -6.8 2.88"/>
    </g>
    <path d="m0 0h5.56l10.58 21.26 10.5-21.26h5.46l-16.02 32.52z"/>
  </g>
  <path d="m23.830519.162113 19.561559 38.988024 19.507522-38.988024z" fill="#898b8d" stroke-width="2.701873"/>
</svg>
